<svg xmlns="http://www.w3.org/2000/svg" xmlns:xlink="http://www.w3.org/1999/xlink" contentStyleType="text/css" height="414px" preserveAspectRatio="none" style="width:911px;height:414px;background:#FFFFFF;" version="1.1" viewBox="0 0 911 414" width="911px" zoomAndPan="magnify"><defs/><g><!--class Category--><g id="elem_Category"><rect codeLine="3" fill="#F1F1F1" height="162.0781" id="Category" rx="2.5" ry="2.5" style="stroke:#181818;stroke-width:0.5;" width="280.0303" x="7" y="15"/><ellipse cx="110.79" cy="31" fill="#ADD1B2" rx="11" ry="11" style="stroke:#181818;stroke-width:1;"/><path d="M113.7588,36.6406 Q113.1807,36.9375 112.54,37.0781 Q111.8994,37.2344 111.1963,37.2344 Q108.6963,37.2344 107.3682,35.5938 Q106.0557,33.9375 106.0557,30.8125 Q106.0557,27.6875 107.3682,26.0313 Q108.6963,24.375 111.1963,24.375 Q111.8994,24.375 112.54,24.5313 Q113.1963,24.6875 113.7588,24.9844 L113.7588,27.7031 Q113.1338,27.125 112.54,26.8594 Q111.9463,26.5781 111.3213,26.5781 Q109.9775,26.5781 109.29,27.6563 Q108.6025,28.7188 108.6025,30.8125 Q108.6025,32.9063 109.29,33.9844 Q109.9775,35.0469 111.3213,35.0469 Q111.9463,35.0469 112.54,34.7813 Q113.1338,34.5 113.7588,33.9219 L113.7588,36.6406 Z " fill="#000000"/><text fill="#000000" font-family="sans-serif" font-size="14" lengthAdjust="spacing" textLength="63.9502" x="131.29" y="35.8467">Category</text><line style="stroke:#181818;stroke-width:0.5;" x1="8" x2="286.0303" y1="47" y2="47"/><ellipse cx="18" cy="60.6484" fill="none" rx="3" ry="3" style="stroke:#038048;stroke-width:1;"/><text fill="#000000" font-family="sans-serif" font-size="14" lengthAdjust="spacing" textLength="35.4785" x="27" y="63.9951">int id</text><ellipse cx="18" cy="76.9453" fill="none" rx="3" ry="3" style="stroke:#038048;stroke-width:1;"/><text fill="#000000" font-family="sans-serif" font-size="14" lengthAdjust="spacing" textLength="85.9346" x="27" y="80.292">String name</text><ellipse cx="18" cy="93.2422" fill="none" rx="3" ry="3" style="stroke:#038048;stroke-width:1;"/><text fill="#000000" font-family="sans-serif" font-size="14" lengthAdjust="spacing" textLength="114.5977" x="27" y="96.5889">Category parent</text><line style="stroke:#181818;stroke-width:0.5;" x1="8" x2="286.0303" y1="103.8906" y2="103.8906"/><ellipse cx="18" cy="117.5391" fill="#84BE84" rx="3" ry="3" style="stroke:#038048;stroke-width:1;"/><text fill="#000000" font-family="sans-serif" font-size="14" lengthAdjust="spacing" textLength="254.0303" x="27" y="120.8857">get_descendants() : Set&lt;Category&gt;</text><ellipse cx="18" cy="133.8359" fill="#84BE84" rx="3" ry="3" style="stroke:#038048;stroke-width:1;"/><text fill="#000000" font-family="sans-serif" font-size="14" lengthAdjust="spacing" textLength="43.6953" x="27" y="137.1826">save()</text><ellipse cx="18" cy="150.1328" fill="#84BE84" rx="3" ry="3" style="stroke:#038048;stroke-width:1;"/><text fill="#000000" font-family="sans-serif" font-size="14" lengthAdjust="spacing" textLength="164.9922" x="27" y="153.4795">get_nesting_level() : int</text><ellipse cx="18" cy="166.4297" fill="#84BE84" rx="3" ry="3" style="stroke:#038048;stroke-width:1;"/><text fill="#000000" font-family="sans-serif" font-size="14" lengthAdjust="spacing" textLength="112.8613" x="27" y="169.7764">__str__() : String</text></g><!--class Product--><g id="elem_Product"><rect codeLine="13" fill="#F1F1F1" height="145.7813" id="Product" rx="2.5" ry="2.5" style="stroke:#181818;stroke-width:0.5;" width="172.46" x="289" y="262"/><ellipse cx="344.125" cy="278" fill="#ADD1B2" rx="11" ry="11" style="stroke:#181818;stroke-width:1;"/><path d="M347.0938,283.6406 Q346.5156,283.9375 345.875,284.0781 Q345.2344,284.2344 344.5313,284.2344 Q342.0313,284.2344 340.7031,282.5938 Q339.3906,280.9375 339.3906,277.8125 Q339.3906,274.6875 340.7031,273.0313 Q342.0313,271.375 344.5313,271.375 Q345.2344,271.375 345.875,271.5313 Q346.5313,271.6875 347.0938,271.9844 L347.0938,274.7031 Q346.4688,274.125 345.875,273.8594 Q345.2813,273.5781 344.6563,273.5781 Q343.3125,273.5781 342.625,274.6563 Q341.9375,275.7188 341.9375,277.8125 Q341.9375,279.9063 342.625,280.9844 Q343.3125,282.0469 344.6563,282.0469 Q345.2813,282.0469 345.875,281.7813 Q346.4688,281.5 347.0938,280.9219 L347.0938,283.6406 Z " fill="#000000"/><text fill="#000000" font-family="sans-serif" font-size="14" lengthAdjust="spacing" textLength="53.71" x="364.625" y="282.8467">Product</text><line style="stroke:#181818;stroke-width:0.5;" x1="290" x2="460.46" y1="294" y2="294"/><ellipse cx="300" cy="307.6484" fill="none" rx="3" ry="3" style="stroke:#038048;stroke-width:1;"/><text fill="#000000" font-family="sans-serif" font-size="14" lengthAdjust="spacing" textLength="35.4785" x="309" y="310.9951">int id</text><ellipse cx="300" cy="323.9453" fill="none" rx="3" ry="3" style="stroke:#038048;stroke-width:1;"/><text fill="#000000" font-family="sans-serif" font-size="14" lengthAdjust="spacing" textLength="73.6025" x="309" y="327.292">String title</text><ellipse cx="300" cy="340.2422" fill="none" rx="3" ry="3" style="stroke:#038048;stroke-width:1;"/><text fill="#000000" font-family="sans-serif" font-size="14" lengthAdjust="spacing" textLength="130.2725" x="309" y="343.5889">Category category</text><ellipse cx="300" cy="356.5391" fill="none" rx="3" ry="3" style="stroke:#038048;stroke-width:1;"/><text fill="#000000" font-family="sans-serif" font-size="14" lengthAdjust="spacing" textLength="96.3799" x="309" y="359.8857">Decimal price</text><line style="stroke:#181818;stroke-width:0.5;" x1="290" x2="460.46" y1="367.1875" y2="367.1875"/><ellipse cx="300" cy="380.8359" fill="#84BE84" rx="3" ry="3" style="stroke:#038048;stroke-width:1;"/><text fill="#000000" font-family="sans-serif" font-size="14" lengthAdjust="spacing" textLength="146.46" x="309" y="384.1826">get_price() : Decimal</text><ellipse cx="300" cy="397.1328" fill="#84BE84" rx="3" ry="3" style="stroke:#038048;stroke-width:1;"/><text fill="#000000" font-family="sans-serif" font-size="14" lengthAdjust="spacing" textLength="112.8613" x="309" y="400.4795">__str__() : String</text></g><!--class GroupProduct--><g id="elem_GroupProduct"><rect codeLine="22" fill="#F1F1F1" height="178.375" id="GroupProduct" rx="2.5" ry="2.5" style="stroke:#181818;stroke-width:0.5;" width="261.8193" x="472" y="7"/><ellipse cx="550.3398" cy="23" fill="#ADD1B2" rx="11" ry="11" style="stroke:#181818;stroke-width:1;"/><path d="M553.3086,28.6406 Q552.7305,28.9375 552.0898,29.0781 Q551.4492,29.2344 550.7461,29.2344 Q548.2461,29.2344 546.918,27.5938 Q545.6055,25.9375 545.6055,22.8125 Q545.6055,19.6875 546.918,18.0313 Q548.2461,16.375 550.7461,16.375 Q551.4492,16.375 552.0898,16.5313 Q552.7461,16.6875 553.3086,16.9844 L553.3086,19.7031 Q552.6836,19.125 552.0898,18.8594 Q551.4961,18.5781 550.8711,18.5781 Q549.5273,18.5781 548.8398,19.6563 Q548.1523,20.7188 548.1523,22.8125 Q548.1523,24.9063 548.8398,25.9844 Q549.5273,27.0469 550.8711,27.0469 Q551.4961,27.0469 552.0898,26.7813 Q552.6836,26.5 553.3086,25.9219 L553.3086,28.6406 Z " fill="#000000"/><text fill="#000000" font-family="sans-serif" font-size="14" lengthAdjust="spacing" textLength="96.6396" x="570.8398" y="27.8467">GroupProduct</text><line style="stroke:#181818;stroke-width:0.5;" x1="473" x2="732.8193" y1="39" y2="39"/><ellipse cx="483" cy="52.6484" fill="none" rx="3" ry="3" style="stroke:#038048;stroke-width:1;"/><text fill="#000000" font-family="sans-serif" font-size="14" lengthAdjust="spacing" textLength="35.4785" x="492" y="55.9951">int id</text><ellipse cx="483" cy="68.9453" fill="none" rx="3" ry="3" style="stroke:#038048;stroke-width:1;"/><text fill="#000000" font-family="sans-serif" font-size="14" lengthAdjust="spacing" textLength="73.6025" x="492" y="72.292">String title</text><ellipse cx="483" cy="85.2422" fill="none" rx="3" ry="3" style="stroke:#038048;stroke-width:1;"/><text fill="#000000" font-family="sans-serif" font-size="14" lengthAdjust="spacing" textLength="130.2725" x="492" y="88.5889">Category category</text><ellipse cx="483" cy="101.5391" fill="none" rx="3" ry="3" style="stroke:#038048;stroke-width:1;"/><text fill="#000000" font-family="sans-serif" font-size="14" lengthAdjust="spacing" textLength="96.3799" x="492" y="104.8857">Decimal price</text><ellipse cx="483" cy="117.8359" fill="none" rx="3" ry="3" style="stroke:#038048;stroke-width:1;"/><text fill="#000000" font-family="sans-serif" font-size="14" lengthAdjust="spacing" textLength="235.8193" x="492" y="121.1826">ManyToMany&lt;Product&gt; products</text><ellipse cx="483" cy="134.1328" fill="none" rx="3" ry="3" style="stroke:#038048;stroke-width:1;"/><text fill="#000000" font-family="sans-serif" font-size="14" lengthAdjust="spacing" textLength="128.2422" x="492" y="137.4795">String pricing_rule</text><line style="stroke:#181818;stroke-width:0.5;" x1="473" x2="732.8193" y1="144.7813" y2="144.7813"/><ellipse cx="483" cy="158.4297" fill="#84BE84" rx="3" ry="3" style="stroke:#038048;stroke-width:1;"/><text fill="#000000" font-family="sans-serif" font-size="14" lengthAdjust="spacing" textLength="146.46" x="492" y="161.7764">get_price() : Decimal</text><ellipse cx="483" cy="174.7266" fill="#84BE84" rx="3" ry="3" style="stroke:#038048;stroke-width:1;"/><text fill="#000000" font-family="sans-serif" font-size="14" lengthAdjust="spacing" textLength="112.8613" x="492" y="178.0732">__str__() : String</text></g><!--class PricingRule--><g id="elem_PricingRule"><rect codeLine="37" fill="#F1F1F1" height="96.8906" id="PricingRule" rx="2.5" ry="2.5" style="stroke:#181818;stroke-width:0.5;" width="135.0059" x="769.5" y="47.5"/><ellipse cx="795.5105" cy="63.5" fill="#EB937F" rx="11" ry="11" style="stroke:#181818;stroke-width:1;"/><path d="M799.6199,69.5 L791.9011,69.5 L791.9011,57.1094 L799.6199,57.1094 L799.6199,59.2656 L794.3542,59.2656 L794.3542,61.9375 L799.1199,61.9375 L799.1199,64.0938 L794.3542,64.0938 L794.3542,67.3438 L799.6199,67.3438 L799.6199,69.5 Z " fill="#000000"/><text fill="#000000" font-family="sans-serif" font-size="14" lengthAdjust="spacing" textLength="78.5381" x="811.9573" y="68.3467">PricingRule</text><line style="stroke:#181818;stroke-width:0.5;" x1="770.5" x2="903.5059" y1="79.5" y2="79.5"/><text fill="#000000" font-family="sans-serif" font-size="14" lengthAdjust="spacing" textLength="98.6768" x="775.5" y="96.4951">DISCOUNT_10</text><text fill="#000000" font-family="sans-serif" font-size="14" lengthAdjust="spacing" textLength="98.6768" x="775.5" y="112.792">DISCOUNT_15</text><text fill="#000000" font-family="sans-serif" font-size="14" lengthAdjust="spacing" textLength="123.0059" x="775.5" y="129.0889">FREE_EVERY_5TH</text><line style="stroke:#181818;stroke-width:0.5;" x1="770.5" x2="903.5059" y1="136.3906" y2="136.3906"/></g><!--link Category to Product--><g id="link_Category_Product"><path codeLine="33" d="M224.19,177.24 C250.54,204.63 279.84,235.08 305.55,261.81 " fill="none" id="Category-Product" style="stroke:#181818;stroke-width:1;"/><text fill="#000000" font-family="sans-serif" font-size="13" lengthAdjust="spacing" textLength="55.0278" x="276" y="228.0669">contains</text><text fill="#000000" font-family="sans-serif" font-size="13" lengthAdjust="spacing" textLength="8.271" x="222.7192" y="197.2127">1</text><text fill="#000000" font-family="sans-serif" font-size="13" lengthAdjust="spacing" textLength="23.0356" x="274.5606" y="250.9513">0..*</text></g><!--link Category to Category--><g id="link_Category_Category"><path codeLine="34" d="M287.05,74.57 C307.9,77.9 322,85.05 322,96 C322,106.95 307.9,114.1 287.05,117.43 " fill="none" id="Category-Category" style="stroke:#181818;stroke-width:1;"/><text fill="#000000" font-family="sans-serif" font-size="13" lengthAdjust="spacing" textLength="120.8848" x="328" y="100.5669">has_subcategories</text><text fill="#000000" font-family="sans-serif" font-size="13" lengthAdjust="spacing" textLength="8.271" x="294.9343" y="70.0563">1</text><text fill="#000000" font-family="sans-serif" font-size="13" lengthAdjust="spacing" textLength="23.0356" x="294.8644" y="115.2166">0..*</text></g><!--link GroupProduct to Product--><g id="link_GroupProduct_Product"><path codeLine="35" d="M518.1,185.25 C493.79,210.52 467.59,237.75 444.34,261.93 " fill="none" id="GroupProduct-Product" style="stroke:#181818;stroke-width:1;"/><text fill="#000000" font-family="sans-serif" font-size="13" lengthAdjust="spacing" textLength="55.0278" x="490" y="228.0669">contains</text><text fill="#000000" font-family="sans-serif" font-size="13" lengthAdjust="spacing" textLength="8.271" x="502.7567" y="205.319">1</text><text fill="#000000" font-family="sans-serif" font-size="13" lengthAdjust="spacing" textLength="6.5" x="445.1834" y="250.7062">*</text></g><!--SRC=[jL1DIyD04BtlhnXpQfMMzj1BA0LfOnMqIX85Jykw6Uj2kWcxaqAH_dUJpKTjKH71FImpRzwyUJDd2RugZH06y_XojRmDGAR2MiOEm5mGhZEpWtS6vRjGca0bTHoHKNeDMcom1ZfoBWnggi4r4a_GIjI9q6HxVV0XGfgsv5bDisABlVwXHQEbKfsdkCNKDQbMaNDBXlDQoNbW-y-U7qoM599-i4oAqbFFiWbgU85IRKGAkL4I3wvSwWOtXDyvMfgioF_9rftGkpYh_capOLQMNM2FrAkUwgAcIF-wKUVA6tim680t6WxFlUxWFiXCar3QViViO1_UXEMsU6dsKsZPqPNQlg_b6UfYKnRSHc6vK7FLnKqqltzSnNmyEiadBhyAWu07Jq7up2VnDTj_0000]--></g></svg>